<svg width="33" height="33" viewBox="0 0 33 33" fill="none" xmlns="http://www.w3.org/2000/svg">
<g clip-path="url(#clip0_11_403)" filter="url(#filter0_d_11_403)">
<path d="M5.5625 1.70104C3.59792 3.74166 4 5.90937 4 12.4948C4 17.9635 3.04584 23.4458 8.03959 24.7365C9.59896 25.1375 23.4156 25.1375 24.9729 24.7344C27.0521 24.1979 28.7438 22.5115 28.975 19.5708C29.0073 19.1604 29.0073 5.83646 28.974 5.41771C28.7281 2.28541 26.8 0.480206 24.2594 0.114581C23.6771 0.0302058 23.5604 0.0052058 20.5729 -2.53692e-06C9.97605 0.0052058 7.65313 -0.466669 5.5625 1.70104Z" fill="url(#paint0_linear_11_403)"/>
<path d="M16.4979 3.2698C12.7156 3.2698 9.12397 2.93334 7.75209 6.45417C7.18543 7.90834 7.26772 9.79688 7.26772 12.501C7.26772 14.874 7.19168 17.1042 7.75209 18.5469C9.12084 22.0698 12.7417 21.7323 16.4958 21.7323C20.1177 21.7323 23.8521 22.1094 25.2406 18.5469C25.8083 17.0781 25.725 15.2177 25.725 12.501C25.725 8.8948 25.924 6.56667 24.175 4.81876C22.4042 3.04792 20.0094 3.2698 16.4938 3.2698H16.4979ZM15.6708 4.93334C23.5604 4.92084 24.5646 4.04376 24.0104 16.2281C23.8135 20.5375 20.5323 20.0646 16.499 20.0646C9.1448 20.0646 8.93334 19.8542 8.93334 12.4969C8.93334 5.05417 9.51668 4.93751 15.6708 4.93126V4.93334ZM21.425 6.46563C20.8135 6.46563 20.3177 6.96147 20.3177 7.57292C20.3177 8.18438 20.8135 8.68022 21.425 8.68022C22.0365 8.68022 22.5323 8.18438 22.5323 7.57292C22.5323 6.96147 22.0365 6.46563 21.425 6.46563ZM16.4979 7.76042C13.8802 7.76042 11.7583 9.88334 11.7583 12.501C11.7583 15.1188 13.8802 17.2406 16.4979 17.2406C19.1156 17.2406 21.2365 15.1188 21.2365 12.501C21.2365 9.88334 19.1156 7.76042 16.4979 7.76042ZM16.4979 9.42397C20.5656 9.42397 20.5708 15.5781 16.4979 15.5781C12.4313 15.5781 12.425 9.42397 16.4979 9.42397Z" fill="white"/>
</g>
<defs>
<filter id="filter0_d_11_403" x="0" y="0" width="33" height="33" filterUnits="userSpaceOnUse" color-interpolation-filters="sRGB">
<feFlood flood-opacity="0" result="BackgroundImageFix"/>
<feColorMatrix in="SourceAlpha" type="matrix" values="0 0 0 0 0 0 0 0 0 0 0 0 0 0 0 0 0 0 127 0" result="hardAlpha"/>
<feOffset dy="4"/>
<feGaussianBlur stdDeviation="2"/>
<feComposite in2="hardAlpha" operator="out"/>
<feColorMatrix type="matrix" values="0 0 0 0 0 0 0 0 0 0 0 0 0 0 0 0 0 0 0.25 0"/>
<feBlend mode="normal" in2="BackgroundImageFix" result="effect1_dropShadow_11_403"/>
<feBlend mode="normal" in="SourceGraphic" in2="effect1_dropShadow_11_403" result="shape"/>
</filter>
<linearGradient id="paint0_linear_11_403" x1="5.61044" y1="23.4032" x2="28.8453" y2="3.29372" gradientUnits="userSpaceOnUse">
<stop stop-color="#8E7F42"/>
<stop offset="0.5" stop-color="#FF543E"/>
<stop offset="1" stop-color="#C837AB"/>
</linearGradient>
<clipPath id="clip0_11_403">
<rect width="25" height="25" fill="white" transform="translate(4)"/>
</clipPath>
</defs>
</svg>
